<svg width="178" height="200" viewBox="0 0 178 200" fill="none" xmlns="http://www.w3.org/2000/svg">
<path d="M177.769 58.7431C177.767 55.384 177.049 52.4153 175.595 49.8674C174.169 47.3618 172.031 45.2618 169.164 43.6014C145.497 29.9549 121.806 16.35 98.1472 2.68959C91.7687 -0.993051 85.5847 -0.859024 79.2528 2.87709C69.8326 8.43264 22.6694 35.4535 8.61458 43.5938C2.82708 46.9444 0.0104167 52.0722 0.00902778 58.7361C0 86.1813 0.00902778 113.625 0 141.07C0 144.355 0.689583 147.267 2.07847 149.776C3.50625 152.358 5.67361 154.515 8.60694 156.213C22.6625 164.353 69.8319 191.373 79.25 196.929C85.584 200.667 91.7688 200.801 98.1493 197.117C121.809 183.456 145.501 169.851 169.172 156.205C172.105 154.508 174.272 152.349 175.7 149.769C177.087 147.26 177.778 144.349 177.778 141.062C177.778 141.062 177.778 86.1882 177.769 58.7431Z" fill="#649AD2"/>
<path d="M89.1611 99.6361L2.07847 149.776C3.50625 152.358 5.67361 154.515 8.60694 156.213C22.6625 164.353 69.8319 191.373 79.25 196.929C85.584 200.667 91.7688 200.801 98.1493 197.117C121.809 183.456 145.501 169.851 169.172 156.205C172.105 154.508 174.272 152.349 175.7 149.769L89.1611 99.6361Z" fill="#004482"/>
<path d="M63.3681 114.488C68.4354 123.334 77.9611 129.301 88.8889 129.301C99.884 129.301 109.464 123.259 114.506 114.317L89.1611 99.6361L63.3681 114.488Z" fill="#1A4674"/>
<path d="M177.769 58.7431C177.767 55.384 177.049 52.4153 175.595 49.8674L89.1611 99.6361L175.7 149.769C177.087 147.26 177.776 144.349 177.778 141.062C177.778 141.062 177.778 86.1882 177.769 58.7431Z" fill="#01589C"/>
<path d="M173.01 103.219H166.248V109.983H159.484V103.219H152.722V96.4583H159.484V89.6958H166.248V96.4583H173.01V103.219ZM88.8889 40.866C110.51 40.866 129.415 52.491 139.701 69.8306L140.01 70.3576L114.315 85.1542C109.222 76.3979 99.7465 70.5056 88.8889 70.5056C72.6528 70.5056 59.491 83.6674 59.491 99.9028C59.4856 105.02 60.8224 110.049 63.3681 114.488C68.4354 123.334 77.9611 129.301 88.8889 129.301C99.7632 129.301 109.253 123.391 114.338 114.611L114.506 114.317L140.163 129.183C129.99 146.958 110.838 158.94 88.8889 158.94C66.9799 158.94 47.8583 147.006 37.6708 129.283C32.6972 120.631 29.8514 110.599 29.8514 99.9028C29.8514 67.2986 56.2826 40.866 88.8889 40.866ZM141.573 89.6951V96.4576H148.335V103.219H141.573V109.983H134.81V103.219H128.048V96.4583H134.81V89.6958L141.573 89.6951Z" fill="white"/>
</svg>
