<svg width="176" height="200" viewBox="0 0 176 200" fill="none" xmlns="http://www.w3.org/2000/svg">
<path d="M175.549 0L159.556 179.979L87.6686 200L15.9789 180.007L0.00317383 0H175.549Z" fill="#264DE4"/>
<path d="M87.7761 184.697L145.865 168.519L159.532 14.7182H87.7761V184.697Z" fill="#2965F1"/>
<path d="M87.7761 81.4804H36.6272L38.5969 103.557H87.7761V81.4804Z" fill="#EBEBEB"/>
<path d="M87.7761 36.7958H87.7002H32.6695L34.6672 58.8732H87.7761V36.7958Z" fill="#EBEBEB"/>
<path d="M39.5788 114.596L42.6577 149.261L87.675 161.815L87.7761 161.787V138.817L87.6798 138.843L63.2044 132.204L61.6398 114.596H39.5788Z" fill="#EBEBEB"/>
<path d="M114.762 103.557L112.211 132.19L87.7001 138.836V161.804L132.753 149.261L138.248 87.4089L138.784 81.4805L142.752 36.7958H87.7002L87.7001 58.8732H118.667L116.668 81.4805H87.7001V103.557H114.762Z" fill="white"/>
</svg>
