<svg width="345" height="200" viewBox="0 0 345 200" fill="none" xmlns="http://www.w3.org/2000/svg">
<path d="M344.578 194.7C332.045 197.889 324.294 194.838 317.34 184.394C301.729 161.004 284.496 138.686 267.868 115.956C265.724 113.015 263.498 110.129 260.722 106.474C241.042 133.024 221.391 158.31 202.948 184.613C196.352 194.013 189.426 198.109 177.113 194.783L251.102 95.48L182.225 5.79679C194.071 3.48806 202.261 4.66991 209.517 15.2791C225.541 38.6962 243.214 60.9864 260.832 84.5685C278.559 61.0689 296.012 38.7512 312.503 15.5539C319.127 6.15409 326.246 2.58106 338.147 6.04416C329.131 18.0001 320.309 29.7636 311.431 41.4447C299.448 57.1935 287.684 73.1348 275.261 88.5538C270.836 94.0508 271.551 97.6238 275.508 102.818C298.486 133.024 321.188 163.533 344.578 194.7ZM0.0824549 93.8309C2.06137 83.9088 3.38064 73.7944 6.12913 64.0647C22.6201 5.16464 90.2329 -19.3244 136.682 17.1755C163.892 38.5863 170.654 68.7647 169.307 102.791H15.9412C13.6325 163.835 57.5808 200.692 113.595 181.892C133.247 175.296 144.818 159.905 150.617 140.665C153.558 131.018 158.423 129.506 167.493 132.255C162.848 156.332 152.321 176.45 130.333 189.039C97.3515 207.893 50.2699 201.792 25.506 175.598C10.884 160.207 4.67243 141.05 1.92394 120.354C1.51167 117.056 0.659637 113.812 0 110.542C0.0549698 104.971 0.0824549 99.4012 0.0824549 93.8309ZM16.2161 89.7356H154.822C153.915 45.5949 126.43 14.2347 88.8586 13.9598C47.6313 13.63 18.0026 44.2482 16.2161 89.7356Z" fill="black"/>
</svg>
