<svg width="135" height="200" viewBox="0 0 135 200" fill="none" xmlns="http://www.w3.org/2000/svg">
<path d="M34.2058 200C52.6042 200 67.5378 185.07 67.5378 166.668V133.336H34.2058C15.8074 133.336 0.873778 148.266 0.873778 166.668C0.873778 185.07 15.8074 200 34.2058 200Z" fill="#0ACF83"/>
<path d="M0.869874 100C0.869874 81.6016 15.7996 66.668 34.2019 66.668H67.5378V133.336H34.2058C15.8074 133.332 0.869874 118.398 0.869874 100Z" fill="#A259FF"/>
<path d="M0.869873 33.332C0.869873 14.9297 15.8035 0 34.2019 0H67.5378V66.668H34.2058C15.8074 66.668 0.869873 51.7305 0.869873 33.332Z" fill="#F24E1E"/>
<path d="M67.5378 0H100.87C119.268 0 134.202 14.9297 134.202 33.332C134.202 51.7344 119.272 66.6641 100.87 66.6641H67.5378V0Z" fill="#FF7262"/>
<path d="M124.436 123.569C137.453 110.552 137.453 89.4475 124.436 76.4307C111.419 63.4138 90.3146 63.4138 77.2977 76.4307C64.2809 89.4475 64.2809 110.552 77.2977 123.569C90.3146 136.586 111.419 136.586 124.436 123.569Z" fill="#1ABCFE"/>
</svg>
