<svg width="200" height="200" viewBox="0 0 200 200" fill="none" xmlns="http://www.w3.org/2000/svg">
<path d="M196.222 91.0938L108.91 3.78118C107.715 2.58268 106.296 1.63173 104.734 0.982867C103.171 0.334006 101.496 0 99.8036 0C98.1116 0 96.4362 0.334006 94.8736 0.982867C93.3109 1.63173 91.8917 2.58268 90.6974 3.78118L72.5635 21.9151L95.5612 44.9127C98.2731 43.9898 101.19 43.8473 103.979 44.5013C106.768 45.1554 109.317 46.5797 111.336 48.612C113.355 50.6443 114.762 53.2028 115.398 55.9961C116.033 58.7894 115.871 61.705 114.931 64.4108L137.071 86.5514C140.381 85.4144 143.98 85.4459 147.269 86.6405C150.558 87.8351 153.339 90.1207 155.147 93.1165C156.956 96.1122 157.683 99.6373 157.208 103.104C156.733 106.571 155.084 109.771 152.537 112.17C149.989 114.569 146.696 116.022 143.207 116.288C139.718 116.554 136.243 115.616 133.361 113.631C130.479 111.646 128.365 108.733 127.37 105.378C126.375 102.023 126.56 98.4286 127.894 95.1933L107.217 74.5169V128.918C110.349 130.47 112.855 133.048 114.317 136.223C115.78 139.398 116.11 142.978 115.253 146.367C114.397 149.756 112.405 152.749 109.61 154.848C106.815 156.947 103.385 158.025 99.8913 157.902C96.398 157.779 93.0521 156.463 90.4111 154.173C87.7701 151.884 85.9934 148.758 85.3768 145.317C84.7603 141.877 85.3412 138.329 87.0228 135.264C88.7043 132.2 91.3851 129.804 94.6184 128.476V73.5741C92.7478 72.8066 91.0476 71.6766 89.6156 70.2492C88.1837 68.8218 87.0483 67.1251 86.2749 65.257C85.5014 63.3889 85.1053 61.3862 85.1093 59.3643C85.1132 57.3424 85.5171 55.3412 86.2978 53.4761L63.6573 30.8213L3.78477 90.7152C2.58519 91.9097 1.63333 93.3294 0.983838 94.8927C0.334344 96.456 0 98.1322 0 99.825C0 101.518 0.334344 103.194 0.983838 104.757C1.63333 106.321 2.58519 107.74 3.78477 108.935L91.0974 196.219C92.2917 197.417 93.7109 198.368 95.2735 199.017C96.8362 199.666 98.5116 200 100.204 200C101.896 200 103.571 199.666 105.134 199.017C106.696 198.368 108.115 197.417 109.31 196.219L196.222 109.285C197.422 108.09 198.374 106.671 199.023 105.107C199.673 103.544 200.007 101.868 200.007 100.175C200.007 98.4821 199.673 96.8059 199.023 95.2426C198.374 93.6793 197.422 92.2597 196.222 91.0652" fill="black"/>
<path d="M72.5635 21.9151L95.5612 44.9127C98.2731 43.9898 101.19 43.8473 103.979 44.5013C106.768 45.1554 109.317 46.5797 111.336 48.612C113.355 50.6443 114.762 53.2028 115.398 55.9961C116.033 58.7894 115.871 61.705 114.931 64.4108L137.071 86.5514C140.381 85.4144 143.98 85.4459 147.269 86.6405C150.558 87.8351 153.339 90.1207 155.147 93.1165C156.956 96.1122 157.683 99.6373 157.208 103.104C156.733 106.571 155.084 109.771 152.537 112.17C149.989 114.569 146.696 116.022 143.207 116.288C139.718 116.554 136.243 115.616 133.361 113.631C130.479 111.646 128.365 108.733 127.37 105.378C126.375 102.023 126.56 98.4286 127.894 95.1933L107.217 74.5169V128.918C110.349 130.47 112.855 133.048 114.317 136.223C115.78 139.398 116.11 142.978 115.253 146.367C114.397 149.756 112.405 152.749 109.61 154.848C106.815 156.947 103.385 158.025 99.8913 157.902C96.398 157.779 93.0521 156.463 90.4111 154.173C87.7701 151.884 85.9934 148.758 85.3768 145.317C84.7603 141.877 85.3412 138.329 87.0228 135.264C88.7043 132.2 91.3851 129.804 94.6184 128.476V73.5741C92.7478 72.8066 91.0476 71.6766 89.6156 70.2492C88.1837 68.8218 87.0483 67.1251 86.2749 65.257C85.5014 63.3889 85.1053 61.3862 85.1093 59.3643C85.1132 57.3424 85.5171 55.3412 86.2978 53.4761L63.6573 30.8213" fill="#DD4C35"/>
</svg>
