<svg width="204" height="200" viewBox="0 0 204 200" fill="none" xmlns="http://www.w3.org/2000/svg">
<path d="M101.525 0C45.4314 0 0 45.4314 0 101.525C0 149.237 32.7386 188.837 76.9085 200C76.3987 198.73 76.1481 196.95 76.1481 195.179V177.915H63.4553C56.6035 177.915 50.2527 174.874 47.4619 169.283C44.1612 163.192 43.6514 153.8 35.2789 147.959C32.7386 145.928 34.7691 143.898 37.5599 144.148C42.8911 145.669 47.2027 149.229 51.2637 154.551C55.3247 159.882 57.1046 161.153 64.7168 161.153C68.268 161.153 73.8497 160.902 78.9303 160.133C81.7212 153.022 86.5425 146.68 92.3835 143.638C58.3747 139.577 42.1307 122.824 42.1307 99.9784C42.1307 90.0765 46.4423 80.6843 53.5534 72.5623C51.2723 64.6909 48.2222 48.4469 54.5729 42.1048C69.806 42.1048 78.939 52.0067 81.22 54.5384C88.8322 51.9981 97.2135 50.4774 105.837 50.4774C114.719 50.4774 122.841 51.9981 130.453 54.5384C132.734 51.9981 141.876 42.1048 157.1 42.1048C163.192 48.1963 160.401 64.6909 157.861 72.5623C164.972 80.4337 169.033 90.0765 169.033 99.9784C169.033 122.824 153.039 139.577 119.29 143.129C128.682 147.95 135.283 161.654 135.283 171.806V194.928C135.283 195.688 135.033 196.449 135.033 197.209C174.623 183.505 203.05 145.945 203.05 101.525C203.05 45.4314 157.619 0 101.525 0Z" fill="black"/>
</svg>
