<svg width="203" height="200" viewBox="0 0 203 200" fill="none" xmlns="http://www.w3.org/2000/svg">
<path d="M2.37727 1.80921H200.826V198.191H2.37727V1.80921Z" fill="#F7DF1E"/>
<path d="M202.654 200H0.549011V0H202.654V200ZM4.3448 196.221H198.856V3.77895H4.3448V196.221Z" fill="#EEEEEE"/>
<path d="M135.905 155.945C139.911 162.488 145.124 167.297 154.345 167.297C162.09 167.297 167.037 163.425 167.037 158.078C167.037 151.669 161.955 149.398 153.429 145.669L148.757 143.665C135.269 137.92 126.309 130.72 126.309 115.501C126.309 101.482 136.989 90.8105 153.684 90.8105C165.568 90.8105 174.113 94.9474 180.269 105.777L165.713 115.122C162.509 109.375 159.052 107.112 153.684 107.112C148.208 107.112 144.738 110.585 144.738 115.122C144.738 120.728 148.212 123 156.231 126.474L160.905 128.476C176.787 135.286 185.753 142.229 185.753 157.84C185.753 174.667 172.534 183.888 154.778 183.888C137.418 183.888 126.204 175.617 120.715 164.775C120.715 164.771 135.905 155.945 135.905 155.945ZM69.8753 157.566C72.8122 162.777 75.4837 167.181 81.9048 167.181C88.0459 167.181 91.9195 164.779 91.9195 155.436V91.8758H110.61V155.686C110.61 175.04 99.2627 183.851 82.6985 183.851C67.7322 183.851 59.0648 176.105 54.6564 166.777L69.8753 157.566Z" fill="black"/>
</svg>
