<svg width="226" height="200" viewBox="0 0 226 200" fill="none" xmlns="http://www.w3.org/2000/svg">
<path d="M225.237 100.023C225.237 85.1453 206.605 71.046 178.04 62.3026C184.632 33.1884 181.703 10.0252 168.793 2.60929C165.818 0.869763 162.339 0.0457764 158.539 0.0457764V10.2541C160.645 10.2541 162.339 10.6661 163.758 11.4443C169.984 15.0149 172.685 28.6107 170.579 46.0975C170.075 50.4005 169.251 54.9325 168.244 59.556C159.272 57.3587 149.476 55.6649 139.176 54.5663C132.996 46.0975 126.587 38.407 120.132 31.6777C135.056 17.8073 149.064 10.2083 158.585 10.2083V0C145.996 0 129.517 8.97231 112.854 24.5365C96.191 9.06386 79.7113 0.183109 67.1226 0.183109V10.3914C76.5984 10.3914 90.652 17.9446 105.575 31.7235C99.1665 38.4527 92.7578 46.0975 86.6694 54.5663C76.3238 55.6649 66.5275 57.3587 57.5552 59.6017C56.5023 55.024 55.7241 50.5837 55.1748 46.3264C53.0233 28.8395 55.6783 15.2438 61.8582 11.6274C63.2316 10.8034 65.0169 10.4372 67.1226 10.4372V0.228885C63.2773 0.228885 59.7983 1.05287 56.777 2.7924C43.9136 10.2083 41.0297 33.3257 47.6673 62.3484C19.194 71.1376 0.654297 85.1911 0.654297 100.023C0.654297 114.9 19.2856 129 47.8505 137.743C41.2586 166.857 44.1883 190.021 57.0974 197.436C60.0729 199.176 63.552 200 67.3973 200C79.986 200 96.4657 191.028 113.129 175.463C129.791 190.936 146.271 199.817 158.86 199.817C162.705 199.817 166.184 198.993 169.205 197.253C182.069 189.837 184.953 166.72 178.315 137.697C206.697 128.954 225.237 114.855 225.237 100.023ZM165.635 69.4896C163.941 75.3948 161.835 81.4832 159.455 87.5715C157.578 83.9093 155.61 80.2472 153.458 76.585C151.352 72.9229 149.109 69.3522 146.866 65.8732C153.367 66.8345 159.638 68.0247 165.635 69.4896ZM144.669 118.242C141.098 124.422 137.436 130.282 133.637 135.729C126.816 136.324 119.904 136.645 112.945 136.645C106.033 136.645 99.1208 136.324 92.3458 135.775C88.5463 130.327 84.8383 124.514 81.2677 118.379C77.7887 112.383 74.63 106.294 71.7461 100.16C74.5843 94.0261 77.7887 87.892 81.2219 81.8952C84.7926 75.7153 88.4547 69.8558 92.2542 64.4083C99.075 63.8132 105.987 63.4928 112.945 63.4928C119.858 63.4928 126.77 63.8132 133.545 64.3625C137.345 69.81 141.053 75.6237 144.623 81.7578C148.102 87.7546 151.261 93.843 154.145 99.9771C151.261 106.111 148.102 112.245 144.669 118.242ZM159.455 112.291C161.927 118.425 164.033 124.559 165.772 130.51C159.775 131.975 153.458 133.211 146.912 134.173C149.155 130.648 151.398 127.031 153.504 123.323C155.61 119.661 157.578 115.953 159.455 112.291ZM113.037 161.135C108.78 156.741 104.522 151.843 100.311 146.487C104.431 146.67 108.642 146.807 112.9 146.807C117.203 146.807 121.46 146.715 125.626 146.487C121.506 151.843 117.249 156.741 113.037 161.135ZM78.9789 134.173C72.4785 133.211 66.2071 132.021 60.2103 130.556C61.904 124.651 64.0098 118.563 66.3902 112.474C68.267 116.136 70.2354 119.799 72.387 123.461C74.5385 127.123 76.7358 130.694 78.9789 134.173ZM112.808 38.9105C117.065 43.3051 121.323 48.2033 125.534 53.5592C121.414 53.3761 117.203 53.2387 112.945 53.2387C108.642 53.2387 104.385 53.3303 100.219 53.5592C104.339 48.2033 108.597 43.3051 112.808 38.9105ZM78.9331 65.8732C76.69 69.398 74.4469 73.0144 72.3412 76.7224C70.2354 80.3845 68.267 84.0467 66.3902 87.7089C63.9182 81.5747 61.8125 75.4406 60.0729 69.4896C66.0697 68.0705 72.387 66.8345 78.9331 65.8732ZM37.5048 123.186C21.2998 116.274 10.8168 107.21 10.8168 100.023C10.8168 92.8359 21.2998 83.7262 37.5048 76.8597C41.4417 75.1659 45.7447 73.6553 50.1851 72.2362C52.7944 81.2085 56.2277 90.547 60.4849 100.114C56.2734 109.636 52.8859 118.929 50.3224 127.855C45.7905 126.436 41.4874 124.88 37.5048 123.186ZM62.1329 188.602C55.9072 185.031 53.2064 171.435 55.3121 153.948C55.8157 149.645 56.6397 145.113 57.6468 140.49C66.6191 142.687 76.4154 144.381 86.7152 145.479C92.8951 153.948 99.3039 161.639 105.758 168.368C90.8351 182.238 76.8273 189.837 67.3057 189.837C65.2457 189.792 63.5062 189.38 62.1329 188.602ZM170.716 153.719C172.868 171.206 170.213 184.802 164.033 188.418C162.659 189.242 160.874 189.609 158.768 189.609C149.292 189.609 135.239 182.055 120.316 168.276C126.724 161.547 133.133 153.902 139.221 145.434C149.567 144.335 159.363 142.641 168.336 140.398C169.389 145.022 170.213 149.462 170.716 153.719ZM188.34 123.186C184.403 124.88 180.1 126.39 175.66 127.81C173.051 118.837 169.617 109.499 165.36 99.9313C169.572 90.4097 172.959 81.117 175.523 72.1904C180.055 73.6095 184.358 75.1659 188.386 76.8597C204.591 83.772 215.074 92.8359 215.074 100.023C215.028 107.21 204.545 116.32 188.34 123.186Z" fill="#61DAFB"/>
<path d="M112.9 120.943C124.454 120.943 133.82 111.577 133.82 100.023C133.82 88.469 124.454 79.1028 112.9 79.1028C101.346 79.1028 91.9795 88.469 91.9795 100.023C91.9795 111.577 101.346 120.943 112.9 120.943Z" fill="#61DAFB"/>
</svg>
