<svg width="212" height="200" viewBox="0 0 212 200" fill="none" xmlns="http://www.w3.org/2000/svg">
<path d="M146.402 139.669C154.198 138.863 160.084 132.162 159.796 124.139C159.508 116.113 152.811 109.646 144.785 109.646H144.266C135.951 109.934 129.543 116.862 129.773 125.176C130.061 129.219 131.679 132.684 134.046 135.109C124.924 153.063 111.007 166.231 90.048 177.201C75.8431 184.708 61.062 187.421 46.3385 185.515C34.27 183.898 24.8604 178.53 18.9702 169.697C10.3674 156.533 9.56066 142.329 16.8339 128.124C21.9132 117.903 29.9974 110.399 35.0808 106.646C33.9818 103.18 32.4259 97.236 31.615 92.9634C-7.2415 121.139 -3.25706 159.188 8.57689 177.205C17.4102 190.599 35.369 198.913 55.2294 198.913C60.601 198.913 65.9685 198.395 71.3401 197.008C105.64 190.364 131.679 169.981 146.402 139.669ZM193.631 106.411C173.248 82.566 143.225 69.3984 108.871 69.3984H104.599C102.174 64.5496 97.0908 61.3719 91.4352 61.3719H90.9165C82.6019 61.66 76.193 68.5875 76.4235 76.9022C76.7117 84.9287 83.4086 91.3952 91.4352 91.3952H91.9538C97.844 91.107 102.923 87.3531 105.117 82.2738H109.966C130.349 82.2738 149.633 88.164 167.07 99.7098C180.464 108.543 190.108 120.093 195.475 134.063C200.036 145.321 199.748 156.352 194.956 165.704C187.449 179.909 174.861 187.701 158.236 187.701C147.497 187.701 137.334 184.466 131.967 182.041C129.024 184.696 123.652 189.026 119.898 191.685C131.444 197.057 143.225 200 154.482 200C180.233 200 199.287 185.795 206.506 171.594C214.245 156.068 213.726 129.219 193.631 106.411ZM57.3698 144.23C57.658 152.257 64.3549 158.723 72.3815 158.723H72.9001C81.2147 158.435 87.6236 151.508 87.3931 143.193C87.1049 135.166 80.408 128.7 72.3815 128.7H71.8628C71.3442 128.7 70.5333 128.7 69.957 128.988C58.9875 110.741 54.4268 90.8807 55.9827 69.4602C57.0817 53.3495 62.3915 39.4369 71.8011 27.887C79.5971 17.9547 94.6087 13.1635 104.771 12.8753C133.177 12.3567 145.246 47.7474 146.057 61.9523C149.522 62.7591 155.466 64.6072 159.451 65.9944C156.219 22.573 129.427 0 103.677 0C79.5436 0 57.2546 17.436 48.4213 43.1867C36.0646 77.5402 44.1487 110.511 59.1604 136.492C57.8885 138.34 57.0817 141.287 57.3698 144.23Z" fill="#764ABC"/>
</svg>
