<svg width="334" height="200" viewBox="0 0 334 200" fill="none" xmlns="http://www.w3.org/2000/svg">
<path d="M166.717 0C122.273 0 94.4941 22.2227 83.3834 66.6667C100.05 44.444 119.494 36.1107 141.717 41.6667C154.395 44.8359 163.458 54.0352 173.489 64.2161C189.83 80.8034 208.741 100 250.05 100C294.494 100 322.273 77.7773 333.383 33.3333C316.717 55.556 297.273 63.8893 275.05 58.3333C262.372 55.1641 253.309 45.9648 243.278 35.7839C226.937 19.1966 208.025 0 166.717 0ZM83.3834 100C38.9394 100 11.1607 122.223 0.0500488 166.667C16.7167 144.444 36.1607 136.111 58.3834 141.667C71.0618 144.836 80.1243 154.035 90.1555 164.216C106.497 180.803 125.408 200 166.717 200C211.161 200 238.939 177.777 250.05 133.333C233.383 155.556 213.939 163.889 191.717 158.333C179.038 155.164 169.976 145.965 159.945 135.784C143.603 119.197 124.692 100 83.3834 100Z" fill="url(#paint0_linear_107_54)"/>
<defs>
<linearGradient id="paint0_linear_107_54" x1="-2370.51" y1="9830.4" x2="-1383.47" y2="20906.2" gradientUnits="userSpaceOnUse">
<stop stop-color="#2298BD"/>
<stop offset="1" stop-color="#0ED7B5"/>
</linearGradient>
</defs>
</svg>
