<svg width="201" height="200" viewBox="0 0 201 200" fill="none" xmlns="http://www.w3.org/2000/svg">
<path d="M0.654297 100V0H200.654V200H0.654297" fill="#007ACC"/>
<path d="M44.5043 100.35V108.5H70.5043V182.5H88.9543V108.5H114.954V100.5C114.954 96 114.954 92.35 114.754 92.25C114.754 92.1 98.9043 92.05 79.6543 92.05L44.6543 92.2V100.4L44.5043 100.35ZM161.354 92C166.454 93.2 170.354 95.5 173.854 99.15C175.704 101.15 178.454 104.65 178.654 105.55C178.654 105.85 170.004 111.7 164.754 114.95C164.554 115.1 163.754 114.25 162.954 112.95C160.354 109.25 157.704 107.65 153.554 107.35C147.554 106.95 143.554 110.1 143.554 115.35C143.554 116.95 143.854 117.85 144.454 119.15C145.804 121.9 148.304 123.55 156.054 126.95C170.354 133.1 176.554 137.15 180.304 142.95C184.554 149.45 185.504 159.65 182.654 167.3C179.454 175.65 171.654 181.3 160.504 183.15C157.004 183.75 149.004 183.65 145.254 183C137.254 181.5 129.604 177.5 124.904 172.35C123.054 170.35 119.504 165 119.704 164.65L121.604 163.45L129.104 159.1L134.754 155.8L136.054 157.55C137.704 160.15 141.404 163.65 143.554 164.85C150.054 168.2 158.754 167.75 163.054 163.85C164.904 162.15 165.704 160.35 165.704 157.85C165.704 155.55 165.354 154.5 164.204 152.75C162.604 150.55 159.404 148.75 150.404 144.75C140.054 140.35 135.654 137.55 131.554 133.25C129.204 130.65 127.054 126.6 126.054 123.25C125.304 120.35 125.054 113.25 125.754 110.4C127.904 100.4 135.454 93.4 146.254 91.4C149.754 90.7 158.004 91 161.454 91.9L161.354 92Z" fill="white"/>
</svg>
